<svg width="185" height="40" viewBox="0 0 185 40" fill="none" xmlns="http://www.w3.org/2000/svg">
<path fill-rule="evenodd" clip-rule="evenodd" d="M0 0H36C38.2091 0 40 1.79086 40 4V40H4C1.79086 40 0 38.2091 0 36V0ZM18.2914 24.352H19.3234C20.5074 24.352 21.3554 24.2 21.8674 23.896C22.3794 23.592 22.6354 23.104 22.6354 22.432C22.6354 21.76 22.3794 21.272 21.8674 20.968C21.3554 20.664 20.5074 20.512 19.3234 20.512H18.2914V24.352ZM18.2914 17.008H19.1554C20.6274 17.008 21.3634 16.424 21.3634 15.256C21.3634 14.088 20.6274 13.504 19.1554 13.504H18.2914V17.008ZM13.5874 9.90399H20.5954C22.2594 9.90399 23.5234 10.304 24.3874 11.104C25.2514 11.904 25.6834 13.056 25.6834 14.56C25.6834 15.472 25.5154 16.232 25.1794 16.84C24.8594 17.432 24.3634 17.936 23.6914 18.352C24.3634 18.48 24.9314 18.68 25.3954 18.952C25.8754 19.208 26.2594 19.528 26.5474 19.912C26.8514 20.296 27.0674 20.728 27.1954 21.208C27.3234 21.688 27.3874 22.2 27.3874 22.744C27.3874 23.592 27.2354 24.344 26.9314 25C26.6434 25.656 26.2274 26.208 25.6834 26.656C25.1554 27.104 24.5074 27.44 23.7394 27.664C22.9714 27.888 22.1074 28 21.1474 28H13.5874V9.90399ZM58.6 24.352H59.632C60.816 24.352 61.664 24.2 62.176 23.896C62.688 23.592 62.944 23.104 62.944 22.432C62.944 21.76 62.688 21.272 62.176 20.968C61.664 20.664 60.816 20.512 59.632 20.512H58.6V24.352ZM58.6 17.008H59.464C60.936 17.008 61.672 16.424 61.672 15.256C61.672 14.088 60.936 13.504 59.464 13.504H58.6V17.008ZM53.896 9.90399H60.904C62.568 9.90399 63.832 10.304 64.696 11.104C65.56 11.904 65.992 13.056 65.992 14.56C65.992 15.472 65.824 16.232 65.488 16.84C65.168 17.432 64.672 17.936 64 18.352C64.672 18.48 65.24 18.68 65.704 18.952C66.184 19.208 66.568 19.528 66.856 19.912C67.16 20.296 67.376 20.728 67.504 21.208C67.632 21.688 67.696 22.2 67.696 22.744C67.696 23.592 67.544 24.344 67.24 25C66.952 25.656 66.536 26.208 65.992 26.656C65.464 27.104 64.816 27.44 64.048 27.664C63.28 27.888 62.416 28 61.456 28H53.896V9.90399ZM79.1052 20.056C78.9612 19.448 78.6652 18.96 78.2172 18.592C77.7692 18.224 77.2252 18.04 76.5852 18.04C75.9132 18.04 75.3612 18.216 74.9292 18.568C74.5132 18.92 74.2492 19.416 74.1372 20.056H79.1052ZM74.0172 22.576C74.0172 24.448 74.8972 25.384 76.6572 25.384C77.6012 25.384 78.3132 25 78.7932 24.232H82.9932C82.1452 27.048 80.0252 28.456 76.6332 28.456C75.5932 28.456 74.6412 28.304 73.7772 28C72.9132 27.68 72.1692 27.232 71.5452 26.656C70.9372 26.08 70.4652 25.392 70.1292 24.592C69.7932 23.792 69.6252 22.896 69.6252 21.904C69.6252 20.88 69.7852 19.96 70.1052 19.144C70.4252 18.312 70.8812 17.608 71.4732 17.032C72.0652 16.456 72.7772 16.016 73.6092 15.712C74.4572 15.392 75.4092 15.232 76.4652 15.232C77.5052 15.232 78.4412 15.392 79.2732 15.712C80.1052 16.016 80.8092 16.464 81.3852 17.056C81.9612 17.648 82.4012 18.376 82.7052 19.24C83.0092 20.088 83.1612 21.048 83.1612 22.12V22.576H74.0172ZM90.6563 28V19.312H93.1283V15.688H90.6563V11.992H86.3123V15.688H84.8723V19.312H86.3123V28H90.6563ZM100.266 19.312V28H95.9217V19.312H94.4817V15.688H95.9217V11.992H100.266V15.688H102.738V19.312H100.266ZM112.717 18.592C113.165 18.96 113.461 19.448 113.605 20.056H108.637C108.749 19.416 109.013 18.92 109.429 18.568C109.861 18.216 110.413 18.04 111.085 18.04C111.725 18.04 112.269 18.224 112.717 18.592ZM111.157 25.384C109.397 25.384 108.517 24.448 108.517 22.576H117.661V22.12C117.661 21.048 117.509 20.088 117.205 19.24C116.901 18.376 116.461 17.648 115.885 17.056C115.309 16.464 114.605 16.016 113.773 15.712C112.941 15.392 112.005 15.232 110.965 15.232C109.909 15.232 108.957 15.392 108.109 15.712C107.277 16.016 106.565 16.456 105.973 17.032C105.381 17.608 104.925 18.312 104.605 19.144C104.285 19.96 104.125 20.88 104.125 21.904C104.125 22.896 104.293 23.792 104.629 24.592C104.965 25.392 105.437 26.08 106.045 26.656C106.669 27.232 107.413 27.68 108.277 28C109.141 28.304 110.093 28.456 111.133 28.456C114.525 28.456 116.645 27.048 117.493 24.232H113.293C112.813 25 112.101 25.384 111.157 25.384ZM120.144 15.688H124.488V17.704C124.952 16.968 125.52 16.408 126.192 16.024C126.864 15.624 127.648 15.424 128.544 15.424H128.904C129.048 15.424 129.208 15.44 129.384 15.472V19.624C128.808 19.336 128.184 19.192 127.512 19.192C126.504 19.192 125.744 19.496 125.232 20.104C124.736 20.696 124.488 21.568 124.488 22.72V28H120.144V15.688ZM136.898 28V20.6523H138.164C140.047 20.6523 141.543 20.168 142.652 19.1992C143.762 18.2305 144.316 16.918 144.316 15.2617C144.316 13.7148 143.797 12.4336 142.758 11.418C142.164 10.832 141.477 10.4336 140.695 10.2227C139.922 10.0117 138.777 9.90625 137.262 9.90625H134.168V28H136.898ZM137.918 18.1211H136.898V12.4258H137.801C140.387 12.4258 141.68 13.3594 141.68 15.2266C141.68 17.1562 140.426 18.1211 137.918 18.1211ZM157.031 16.5859H154.383V17.9102C153.328 16.8164 152.137 16.2695 150.809 16.2695C149.27 16.2695 147.988 16.8398 146.965 17.9805C145.941 19.1211 145.43 20.5469 145.43 22.2578C145.43 24 145.941 25.4531 146.965 26.6172C147.996 27.7578 149.301 28.3281 150.879 28.3281C152.129 28.3281 153.297 27.8203 154.383 26.8047V28H157.031V16.5859ZM149.004 24.9297C148.418 24.2422 148.125 23.3516 148.125 22.2578C148.125 21.2344 148.426 20.375 149.027 19.6797C149.637 18.9922 150.395 18.6484 151.301 18.6484C152.262 18.6484 153.043 18.9883 153.645 19.668C154.246 20.3633 154.547 21.2461 154.547 22.3164C154.547 23.3867 154.246 24.2695 153.645 24.9648C153.043 25.6367 152.254 25.9727 151.277 25.9727C150.363 25.9727 149.605 25.625 149.004 24.9297ZM162.996 16.5859V28H160.359V16.5859H162.996ZM159.961 11.8398C159.961 11.3789 160.129 10.9805 160.465 10.6445C160.801 10.3086 161.203 10.1406 161.672 10.1406C162.148 10.1406 162.555 10.3086 162.891 10.6445C163.227 10.9727 163.395 11.375 163.395 11.8516C163.395 12.3281 163.227 12.7344 162.891 13.0703C162.562 13.4062 162.16 13.5742 161.684 13.5742C161.207 13.5742 160.801 13.4062 160.465 13.0703C160.129 12.7344 159.961 12.3242 159.961 11.8398ZM168.984 16.5859H166.336V28H168.984V22.4922C168.984 21.0703 169.164 20.0742 169.523 19.5039C169.891 18.9258 170.512 18.6367 171.387 18.6367C172.191 18.6367 172.746 18.8555 173.051 19.293C173.363 19.7227 173.52 20.5 173.52 21.625V28H176.168V21.0039C176.168 19.3945 175.848 18.2344 175.207 17.5234C174.465 16.6875 173.43 16.2695 172.102 16.2695C170.945 16.2695 169.906 16.7266 168.984 17.6406V16.5859ZM182.227 19.0469V28H179.59V19.0469H178.465V16.5859H179.59V12.4023H182.227V16.5859H184.277V19.0469H182.227Z" fill="black"/>
</svg>
