<svg width="40" height="40" viewBox="0 0 40 40" fill="none" xmlns="http://www.w3.org/2000/svg">
<path fill-rule="evenodd" clip-rule="evenodd" d="M0 0H36C38.2091 0 40 1.79086 40 4V40H4C1.79086 40 0 38.2091 0 36V0ZM18.2914 24.352H19.3234C20.5074 24.352 21.3554 24.2 21.8674 23.896C22.3794 23.592 22.6354 23.104 22.6354 22.432C22.6354 21.76 22.3794 21.272 21.8674 20.968C21.3554 20.664 20.5074 20.512 19.3234 20.512H18.2914V24.352ZM18.2914 17.008H19.1554C20.6274 17.008 21.3634 16.424 21.3634 15.256C21.3634 14.088 20.6274 13.504 19.1554 13.504H18.2914V17.008ZM13.5874 9.90399H20.5954C22.2594 9.90399 23.5234 10.304 24.3874 11.104C25.2514 11.904 25.6834 13.056 25.6834 14.56C25.6834 15.472 25.5154 16.232 25.1794 16.84C24.8594 17.432 24.3634 17.936 23.6914 18.352C24.3634 18.48 24.9314 18.68 25.3954 18.952C25.8754 19.208 26.2594 19.528 26.5474 19.912C26.8514 20.296 27.0674 20.728 27.1954 21.208C27.3234 21.688 27.3874 22.2 27.3874 22.744C27.3874 23.592 27.2354 24.344 26.9314 25C26.6434 25.656 26.2274 26.208 25.6834 26.656C25.1554 27.104 24.5074 27.44 23.7394 27.664C22.9714 27.888 22.1074 28 21.1474 28H13.5874V9.90399Z" fill="black"/>
</svg>
