<svg width="32" height="32" viewBox="0 0 32 32" fill="none" xmlns="http://www.w3.org/2000/svg">
<path d="M8 2.66669L4 8.00002V26.6667C4 27.3739 4.28095 28.0522 4.78105 28.5523C5.28115 29.0524 5.95942 29.3334 6.66667 29.3334H25.3333C26.0406 29.3334 26.7189 29.0524 27.219 28.5523C27.719 28.0522 28 27.3739 28 26.6667V8.00002L24 2.66669H8Z" stroke="black" stroke-width="2" stroke-linecap="round" stroke-linejoin="round"/>
<path d="M4 8H28" stroke="black" stroke-width="2" stroke-linecap="round" stroke-linejoin="round"/>
<path d="M21.3332 13.3333C21.3332 14.7478 20.7713 16.1044 19.7711 17.1046C18.7709 18.1048 17.4144 18.6667 15.9999 18.6667C14.5854 18.6667 13.2288 18.1048 12.2286 17.1046C11.2285 16.1044 10.6665 14.7478 10.6665 13.3333" stroke="black" stroke-width="2" stroke-linecap="round" stroke-linejoin="round"/>
</svg>
